# xmcd
#
# Track frame offsets:
# 150
# 250010
# 266530
# 293010
#
# Disc length: 4342 seconds
#
#
# Revision: 0
# Processed by: cddbd v1.5.1PL0 Copyright (c) Steve Scherf et al.
# Submitted via: FreeRIP 2.90 
#
DISCID=3010f404
DTITLE=Various Artist - PURE SWING MEGAMIX
DYEAR=1996
DGENRE=Swing
TTITLE0=PURE SWING MEGAMIX
TTITLE1=SOUL II SOUL - Love Enuff (Funk Da Mix)
TTITLE2=Michael Jackson - You Are Not Alone (Breathe Again Remix)
TTITLE3=Luther Vandross - The Rush (Original Full Extended Version)
EXTD=
EXTT0=
EXTT1=
EXTT2=
EXTT3=
PLAYORDER=
